<?xml version="1.0" encoding="UTF-8"?>
<svg width="512" height="512" viewBox="0 0 512 512" xmlns="http://www.w3.org/2000/svg">
  <defs>
    <linearGradient id="bgGrad" x1="0%" y1="0%" x2="100%" y2="100%">
      <stop offset="0%" style="stop-color:#2a2a2a;stop-opacity:1" />
      <stop offset="100%" style="stop-color:#1a1a1a;stop-opacity:1" />
    </linearGradient>
    <linearGradient id="boardGrad" x1="0%" y1="0%" x2="100%" y2="100%">
      <stop offset="0%" style="stop-color:#3a3a3a;stop-opacity:1" />
      <stop offset="100%" style="stop-color:#2a2a2a;stop-opacity:1" />
    </linearGradient>
  </defs>
  
  <!-- Background circle -->
  <circle cx="256" cy="256" r="240" fill="url(#bgGrad)" stroke="#dc143c" stroke-width="8"/>
  
  <!-- Main kanban board -->
  <g transform="translate(128, 128)">
    <!-- Board background -->
    <rect x="0" y="0" width="256" height="192" rx="12" fill="url(#boardGrad)" stroke="#dc143c" stroke-width="3"/>
    
    <!-- Column 1 - To Do -->
    <rect x="16" y="16" width="64" height="160" rx="6" fill="#333" stroke="#555" stroke-width="1"/>
    <rect x="20" y="20" width="56" height="8" rx="3" fill="#dc143c"/>
    <rect x="22" y="32" width="52" height="20" rx="3" fill="#444"/>
    <rect x="22" y="56" width="52" height="16" rx="3" fill="#444"/>
    <rect x="22" y="76" width="52" height="18" rx="3" fill="#444"/>
    <rect x="22" y="98" width="52" height="14" rx="3" fill="#444"/>
    
    <!-- Column 2 - In Progress -->
    <rect x="96" y="16" width="64" height="160" rx="6" fill="#333" stroke="#555" stroke-width="1"/>
    <rect x="100" y="20" width="56" height="8" rx="3" fill="#dc143c"/>
    <rect x="102" y="32" width="52" height="16" rx="3" fill="#444"/>
    <rect x="102" y="52" width="52" height="22" rx="3" fill="#444"/>
    <rect x="102" y="78" width="52" height="24" rx="3" fill="#444"/>
    
    <!-- Column 3 - Done -->
    <rect x="176" y="16" width="64" height="160" rx="6" fill="#333" stroke="#555" stroke-width="1"/>
    <rect x="180" y="20" width="56" height="8" rx="3" fill="#dc143c"/>
    <rect x="182" y="32" width="52" height="14" rx="3" fill="#444"/>
    <rect x="182" y="50" width="52" height="18" rx="3" fill="#444"/>
    <rect x="182" y="72" width="52" height="16" rx="3" fill="#444"/>
    <rect x="182" y="92" width="52" height="20" rx="3" fill="#444"/>
  </g>
  
  <!-- App title -->
  <text x="256" y="380" text-anchor="middle" fill="#dc143c" font-family="Arial, sans-serif" font-size="36" font-weight="bold">MaverDash</text>
</svg>